<svg width="24" height="24" viewBox="0 0 24 24" fill="none" xmlns="http://www.w3.org/2000/svg">
  <path d="M12 2C12 2 12.5 7.5 14.5 9.5C16.5 11.5 22 12 22 12C22 12 16.5 12.5 14.5 14.5C12.5 16.5 12 22 12 22C12 22 11.5 16.5 9.5 14.5C7.5 12.5 2 12 2 12C2 12 7.5 11.5 9.5 9.5C11.5 7.5 12 2 12 2Z" fill="#0B5FFF"/>
  <path d="M6 4C6 4 6.2 5.8 7.0 6.5C7.8 7.2 9.5 7.5 9.5 7.5C9.5 7.5 7.8 7.8 7.0 8.5C6.2 9.2 6 11 6 11C6 11 5.8 9.2 5.0 8.5C4.2 7.8 2.5 7.5 2.5 7.5C2.5 7.5 4.2 7.2 5.0 6.5C5.8 5.8 6 4 6 4Z" fill="#80B0FF"/>
</svg>
